<?xml version="1.0" standalone="no"?>
<!DOCTYPE svg PUBLIC "-//W3C//DTD SVG 20010904//EN"
 "http://www.w3.org/TR/2001/REC-SVG-20010904/DTD/svg10.dtd">
<svg version="1.0" xmlns="http://www.w3.org/2000/svg"
 width="1024.000000pt" height="1024.000000pt" viewBox="0 0 1024.000000 1024.000000"
 preserveAspectRatio="xMidYMid meet">
<metadata>
Created by potrace 1.14, written by Peter Selinger 2001-2017
</metadata>
<g transform="translate(0.000000,1024.000000) scale(0.100000,-0.100000)"
fill="#000000" stroke="none">
<path d="M480 5120 l0 -5120 4580 0 c4355 0 4580 1 4581 18 0 9 1 2313 2 5119
l2 5103 -4582 0 -4583 0 0 -5120z m8965 4931 c7 -1 10 -1647 9 -4928 -1 -2711
-2 -4930 -3 -4933 0 -3 -1977 -5 -4391 -5 -3895 0 -4390 2 -4391 15 -5 86 -3
9829 2 9840 6 13 502 15 4386 13 2408 -1 4383 -2 4388 -2z"/>
<path d="M3063 5120 l0 -2210 450 2 451 3 0 932 c0 642 3 930 11 925 5 -3 51
-45 100 -93 172 -167 284 -275 500 -484 120 -115 249 -241 287 -279 l70 -68
466 0 c257 0 485 1 507 1 l40 1 -70 66 c-39 36 -173 166 -299 288 -384 372
-403 390 -437 422 -19 17 -51 48 -71 70 -20 21 -103 103 -185 181 -81 78 -194
186 -250 240 -127 123 -501 485 -596 577 l-72 70 0 783 0 783 -451 0 -451 0 0
-2210z"/>
<path d="M6159 7323 c0 -5 0 -93 0 -198 1 -104 1 -206 0 -225 -4 -137 -3 -243
4 -247 4 -2 4 -12 -1 -21 -4 -9 -6 -53 -5 -97 2 -44 3 -96 2 -115 -4 -150 -3
-243 4 -247 4 -2 4 -9 1 -15 -10 -15 -11 -299 -1 -305 4 -2 4 -9 1 -15 -10
-15 -11 -299 -1 -305 4 -2 4 -10 0 -16 -4 -6 -6 -26 -5 -45 l3 -34 -47 44
c-26 23 -86 81 -134 128 -209 203 -519 502 -601 580 l-90 85 -499 0 c-275 0
-500 -1 -500 -4 0 -4 34 -37 424 -414 109 -106 242 -235 296 -287 53 -52 200
-194 325 -315 125 -121 273 -264 329 -318 55 -54 190 -184 298 -289 l196 -190
-1 -100 c-1 -55 1 -102 6 -105 4 -2 4 -9 1 -15 -10 -15 -11 -299 -1 -305 4 -2
4 -12 -1 -21 -4 -9 -6 -53 -5 -97 2 -44 3 -96 2 -115 -4 -149 -3 -243 4 -247
4 -2 4 -12 -1 -21 -4 -9 -6 -53 -5 -97 2 -44 3 -93 2 -110 -1 -35 -1 -272 0
-297 1 -17 29 -18 451 -18 l450 0 0 2210 0 2210 -450 0 c-247 0 -450 -3 -451
-7z"/>
</g>
</svg>
